<?xml version="1.0" encoding="UTF-8" standalone="no"?>
<!-- Created with Inkscape (http://www.inkscape.org/) -->
<svg xmlns:dc="http://purl.org/dc/elements/1.1/" xmlns:cc="http://creativecommons.org/ns#" xmlns:rdf="http://www.w3.org/1999/02/22-rdf-syntax-ns#" xmlns:svg="http://www.w3.org/2000/svg" xmlns="http://www.w3.org/2000/svg" xmlns:xlink="http://www.w3.org/1999/xlink" xmlns:sodipodi="http://sodipodi.sourceforge.net/DTD/sodipodi-0.dtd" xmlns:inkscape="http://www.inkscape.org/namespaces/inkscape" width="100%" height="100%" viewBox="0 0 29.069883 10.420284" version="1.1" id="svg10127" inkscape:version="0.92.2 5c3e80d, 2017-08-06" sodipodi:docname="invenio-rdm.svg">
  <defs id="defs10121"/>
  <sodipodi:namedview id="base" pagecolor="#ffffff" bordercolor="#666666" borderopacity="1.0" inkscape:pageopacity="0.0" inkscape:pageshadow="2" inkscape:zoom="98.865207" inkscape:cx="14.534905" inkscape:cy="5.2101433" inkscape:document-units="mm" inkscape:current-layer="g20930" showgrid="false" inkscape:pagecheckerboard="true" fit-margin-top="0" fit-margin-left="0" fit-margin-right="0" fit-margin-bottom="0" inkscape:window-width="3440" inkscape:window-height="1395" inkscape:window-x="0" inkscape:window-y="1" inkscape:window-maximized="1"/>
  <metadata id="metadata10124">
    <rdf:RDF>
      <cc:Work rdf:about="">
        <dc:format>image/svg+xml</dc:format>
        <dc:type rdf:resource="http://purl.org/dc/dcmitype/StillImage"/>
        <dc:title/>
      </cc:Work>
    </rdf:RDF>
  </metadata>
  <g inkscape:label="Layer 1" inkscape:groupmode="layer" id="layer1" transform="translate(1142.2809,279.38339)">
    <a transform="matrix(0.26458333,0,0,0.26458333,-1279.7936,-339.14401)" style="display:inline" id="a9715" xlink:href="/products/rdm/">
      <g transform="translate(0.9420447)" id="g20930">
        <g aria-label="RDM" transform="scale(0.96631971,1.0348542)" style="font-style:normal;font-variant:normal;font-weight:600;font-stretch:normal;font-size:37.37073898px;line-height:1.25;font-family:Oswald;-inkscape-font-specification:'Oswald, Semi-Bold';font-variant-ligatures:normal;font-variant-caps:normal;font-variant-numeric:normal;font-feature-settings:normal;text-align:start;letter-spacing:0px;word-spacing:0px;writing-mode:lr-tb;text-anchor:start;fill:#fb8273;fill-opacity:1;stroke:none;stroke-width:7.56652451;stroke-miterlimit:4;stroke-dasharray:none" id="text19212">
          <path id="path32121" style="font-style:normal;font-variant:normal;font-weight:600;font-stretch:normal;font-size:37.37073898px;font-family:Oswald;-inkscape-font-specification:'Oswald, Semi-Bold';font-variant-ligatures:normal;font-variant-caps:normal;font-variant-numeric:normal;font-feature-settings:normal;text-align:start;writing-mode:lr-tb;text-anchor:start;stroke-width:7.56652451" d="m 628.93512,251.59732 0.52319,-30.2703 h 6.53987 l 3.73708,19.09645 3.99867,-19.09645 h 6.31565 l 0.52319,30.2703 h -4.48449 l -0.48582,-20.51654 -3.84918,20.51654 h -3.84919 l -4.03604,-20.66602 -0.41108,20.66602 z m -21.27388,0 v -30.2703 h 7.3994 q 3.84919,0 5.97932,1.00901 2.1675,0.97164 3.0644,3.10177 0.8969,2.09276 0.8969,5.38139 v 11.02437 q 0,3.36336 -0.8969,5.53087 -0.8969,2.1675 -3.02703,3.21388 -2.09276,1.00901 -5.8672,1.00901 z m 6.16617,-4.29763 h 1.30798 q 1.71905,0 2.42909,-0.52319 0.74742,-0.56057 0.93427,-1.60695 0.18686,-1.08375 0.18686,-2.65332 V 230.0344 q 0,-1.56957 -0.2616,-2.50384 -0.22422,-0.97163 -0.97164,-1.42008 -0.71004,-0.44845 -2.35436,-0.44845 h -1.2706 z m -27.84412,4.29763 v -30.2703 h 7.84785 q 3.06441,0 5.23191,0.71005 2.20487,0.67267 3.36336,2.42909 1.19587,1.75643 1.19587,4.8582 0,1.86854 -0.33634,3.326 -0.29896,1.42008 -1.12112,2.50384 -0.78479,1.04638 -2.24224,1.68168 l 4.18552,14.76144 h -6.31566 l -3.47548,-13.71506 h -2.1675 v 13.71506 z m 6.16617,-17.37739 h 1.7938 q 1.49483,0 2.35435,-0.48582 0.85953,-0.48582 1.19587,-1.45746 0.3737,-1.00901 0.3737,-2.46647 0,-2.09276 -0.78478,-3.17651 -0.74742,-1.12113 -2.84018,-1.12113 h -2.09276 z" inkscape:connector-curvature="0"/>
        </g>
        <g transform="matrix(0.43046721,0,0,0.43046721,198.64479,126.38329)" id="g20690">
          <g id="g20682" transform="translate(474.21725,226.44114)">
            <g id="g20680">
              <g id="g20678">
                <path inkscape:connector-curvature="0" d="m 328.162,4.665 c -18.767,0 -34.032,15.268 -34.032,34.034 0,7.28 2.306,14.028 6.214,19.568 l -30.078,26.432 c -1.881,1.878 0.067,6.867 1.944,8.749 1.879,1.876 6.87,3.822 8.748,1.943 l 26.265,-29.894 c 5.779,4.525 13.047,7.233 20.939,7.233 18.768,0 34.034,-15.267 34.034,-34.032 0,-18.765 -15.266,-34.033 -34.034,-34.033 z m 0,56.722 c -12.51,0 -22.689,-10.177 -22.689,-22.688 0,-12.511 10.18,-22.69 22.689,-22.69 12.513,0 22.688,10.18 22.688,22.69 0,12.51 -10.175,22.688 -22.688,22.688 z" id="path20676" style="fill:#ffffff"/>
              </g>
            </g>
          </g>
          <g id="g20688" transform="matrix(0.38742049,0,0,0.38742049,670.93796,251.12579)">
            <path inkscape:connector-curvature="0" d="m 375.104,38.079 c 0.174,18.184 -8.123,32.126 -11.51,37.52 8.183,-5.347 19.898,-19.36 19.674,-37.661 0.174,-18.183 -11.431,-32.127 -19.631,-37.52 3.323,5.347 11.691,19.36 11.467,37.661 z" id="path20684" style="fill:#ffffff"/>
            <path inkscape:connector-curvature="0" d="m 375.104,38.079 c 0.174,18.184 -8.123,32.126 -11.51,37.52 8.183,-5.347 19.898,-19.36 19.674,-37.661 0.174,-18.183 -11.431,-32.127 -19.631,-37.52 3.323,5.347 11.691,19.36 11.467,37.661 z" id="path20686" style="fill:none;stroke:#ffffff"/>
          </g>
        </g>
      </g>
    </a>
  </g>
</svg>